<svg width="1080" height="1080" viewBox="0 0 1080 1080" fill="none" xmlns="http://www.w3.org/2000/svg">
<g clip-path="url(#clip0_3985_5578)">
<rect width="1080" height="1080" fill="#2B2A6A"/>
<g filter="url(#filter0_f_3985_5578)">
<path d="M345.858 51.2696C602.358 236.27 1131.36 495.27 1195.36 51.2696C1275.36 -503.73 -189.142 -309.73 345.858 51.2696Z" fill="#08ECDB"/>
</g>
<g filter="url(#filter1_f_3985_5578)">
<path d="M605.376 1050.55C611.375 1079.98 594.723 1264.6 -13.0232 1215.21C-620.769 1165.83 191.294 641.455 605.376 1050.55Z" fill="#05EF6A"/>
</g>
<g filter="url(#filter2_f_3985_5578)">
<path d="M396.331 -76.9751C536.664 181.692 639.431 709.725 -72.169 752.525C-961.669 806.025 -111.669 -504.975 396.331 -76.9751Z" fill="url(#paint0_linear_3985_5578)"/>
</g>
<g filter="url(#filter3_f_3985_5578)">
<path d="M1166.02 -419.138C821.74 151.212 364.007 1330.19 1287.3 1483.3C2441.41 1674.68 655.605 1049.95 1166.02 -419.138Z" fill="#BD26FF"/>
</g>
</g>
<defs>
<filter id="filter0_f_3985_5578" x="-69" y="-593" width="1564.53" height="1186.42" filterUnits="userSpaceOnUse" color-interpolation-filters="sRGB">
<feFlood flood-opacity="0" result="BackgroundImageFix"/>
<feBlend mode="normal" in="SourceGraphic" in2="BackgroundImageFix" result="shape"/>
<feGaussianBlur stdDeviation="148.5" result="effect1_foregroundBlur_3985_5578"/>
</filter>
<filter id="filter1_f_3985_5578" x="-473.125" y="653.53" width="1321.23" height="812.028" filterUnits="userSpaceOnUse" color-interpolation-filters="sRGB">
<feFlood flood-opacity="0" result="BackgroundImageFix"/>
<feBlend mode="normal" in="SourceGraphic" in2="BackgroundImageFix" result="shape"/>
<feGaussianBlur stdDeviation="121" result="effect1_foregroundBlur_3985_5578"/>
</filter>
<filter id="filter2_f_3985_5578" x="-716" y="-419" width="1469.41" height="1429.12" filterUnits="userSpaceOnUse" color-interpolation-filters="sRGB">
<feFlood flood-opacity="0" result="BackgroundImageFix"/>
<feBlend mode="normal" in="SourceGraphic" in2="BackgroundImageFix" result="shape"/>
<feGaussianBlur stdDeviation="128" result="effect1_foregroundBlur_3985_5578"/>
</filter>
<filter id="filter3_f_3985_5578" x="315.336" y="-847.138" width="1796.18" height="2792.05" filterUnits="userSpaceOnUse" color-interpolation-filters="sRGB">
<feFlood flood-opacity="0" result="BackgroundImageFix"/>
<feBlend mode="normal" in="SourceGraphic" in2="BackgroundImageFix" result="shape"/>
<feGaussianBlur stdDeviation="214" result="effect1_foregroundBlur_3985_5578"/>
</filter>
<linearGradient id="paint0_linear_3985_5578" x1="18.7064" y1="-163" x2="18.7064" y2="754.122" gradientUnits="userSpaceOnUse">
<stop stop-color="#FF00A6"/>
<stop offset="1" stop-color="#00E4FF"/>
</linearGradient>
<clipPath id="clip0_3985_5578">
<rect width="1080" height="1080" fill="white"/>
</clipPath>
</defs>
</svg>
